<?xml version="1.0" encoding="UTF-8"?>
<svg id="Layer_2" data-name="Layer 2" xmlns="http://www.w3.org/2000/svg" viewBox="0 0 393.83 68.49">
  <g id="Layer_1-2" data-name="Layer 1">
    <path d="M43.3,20.34v1.39h0c6.28.23,11.32,5.27,11.55,11.55h0c.89,0,.5,0,1.39,0h0c.23-6.28,5.27-11.32,11.55-11.55h0v-1.39h0c-6.28-.23-11.32-5.27-11.55-11.55h0c-.89,0-.5,0-1.39,0h0c-.23,6.28-5.27,11.32-11.55,11.55h0ZM68.65,44.52c-2.01-4.17-6.57-6.96-11.71-7.18h-24.82S46.73,0,46.73,0h-10.84c-5.02,0-9.51,2.83-11.26,7.09L0,68.49h11.41c4.8,0,9.22-2.82,11.55-7.37l6.92-17.31,13.76.11c6.52,0,7.51,5,9.02,8.95l3.5,8.25c2.33,4.55,6.75,7.37,11.55,7.37h11.41l-10.46-23.97Z"/>
    <path d="M92.32,49.29l14.21-33.18h5.41l14.13,33.18h-5l-4.14-9.71h-15.61l-4.14,9.71h-4.87ZM102.93,35.36h12.54l-6.15-14.54h-.2l-6.19,14.54Z"/>
    <path d="M146.04,49.29v-3.48l13.72-13.35c1.75-1.69,2.94-3.06,3.56-4.1.63-1.04.94-2.12.94-3.24,0-1.69-.56-3.02-1.68-3.97-1.12-.96-2.68-1.43-4.67-1.43-4.32,0-6.72,2.16-7.21,6.47h-4.67c.22-3.33,1.38-5.93,3.48-7.78,2.1-1.86,4.92-2.79,8.44-2.79,2.27,0,4.23.39,5.88,1.17,1.65.78,2.94,1.86,3.85,3.26.91,1.39,1.37,3.05,1.37,4.96,0,1.56-.44,3.09-1.31,4.61-.87,1.52-2.27,3.2-4.18,5.06l-10.81,10.28.04.16h16.88v4.18h-23.64Z"/>
    <path d="M203.63,49.29v-19.62h-2.5v-4.96h5.16v3.81h1.72c.85-1.39,2.01-2.45,3.48-3.17,1.48-.72,3.21-1.09,5.2-1.09,3.2,0,5.71.91,7.56,2.74,1.84,1.83,2.77,4.26,2.77,7.29v14.99h-4.83v-14.17c0-2.16-.58-3.8-1.74-4.92-1.16-1.12-2.86-1.68-5.1-1.68s-3.95.56-5.12,1.68c-1.17,1.12-1.76,2.76-1.76,4.92v14.17h-4.83Z"/>
    <path d="M241.66,49.78c-2.51,0-4.7-.53-6.55-1.58-1.86-1.05-3.3-2.53-4.32-4.44-1.02-1.91-1.54-4.16-1.54-6.76s.5-4.85,1.52-6.76c1.01-1.91,2.44-3.39,4.3-4.44,1.86-1.05,4.06-1.58,6.6-1.58,3.03,0,5.55.75,7.56,2.25,2.01,1.5,3.34,3.65,3.99,6.43h-4.92c-.44-1.5-1.22-2.62-2.33-3.36-1.12-.74-2.55-1.11-4.3-1.11-2.38,0-4.23.75-5.57,2.25-1.34,1.5-2.01,3.61-2.01,6.31s.67,4.81,2.01,6.31c1.34,1.5,3.2,2.25,5.57,2.25,3.69,0,5.95-1.62,6.8-4.88h4.87c-.6,2.92-1.91,5.17-3.93,6.74-2.02,1.57-4.6,2.36-7.74,2.36Z"/>
    <path d="M265.77,49.74c-3.17,0-5.66-.88-7.48-2.64s-2.72-4.14-2.72-7.15v-15.24h4.83v14.26c0,2.13.56,3.75,1.68,4.85,1.12,1.11,2.76,1.66,4.92,1.66,2.27,0,4.02-.58,5.26-1.74,1.24-1.16,1.86-2.78,1.86-4.85v-14.17h4.83v19.62h2.5v4.96h-5.12v-3.81h-1.72c-.9,1.39-2.08,2.45-3.54,3.17-1.46.72-3.23,1.09-5.3,1.09Z"/>
    <path d="M296.8,49.78c-1.99,0-3.7-.37-5.12-1.11-1.42-.74-2.54-1.8-3.36-3.2h-1.72v3.81h-5.16v-4.96h2.5V14.87h4.83v13.72h.16c.76-1.42,1.86-2.51,3.28-3.26,1.42-.75,3.09-1.13,5-1.13,2.35,0,4.36.52,6.04,1.56s2.96,2.51,3.85,4.42c.89,1.91,1.33,4.18,1.33,6.8s-.46,4.89-1.37,6.8c-.92,1.91-2.23,3.39-3.95,4.42-1.72,1.04-3.82,1.56-6.31,1.56ZM296.02,45.64c2.43,0,4.3-.76,5.61-2.29,1.31-1.53,1.97-3.65,1.97-6.35s-.66-4.82-1.97-6.35c-1.31-1.53-3.18-2.29-5.61-2.29-2.19,0-3.94.63-5.26,1.88-1.32,1.26-1.99,2.94-1.99,5.04v3.44c0,2.1.66,3.78,1.99,5.04s3.08,1.88,5.26,1.88Z"/>
    <path d="M319.46,49.74c-2.79,0-4.98-.7-6.59-2.09-1.61-1.39-2.42-3.2-2.42-5.41,0-2.38.8-4.21,2.4-5.51,1.6-1.3,3.9-1.95,6.9-1.95h8.23v-1.06c0-3.69-2.02-5.53-6.06-5.53-3.36,0-5.38,1.24-6.06,3.73h-4.88c.44-2.46,1.62-4.36,3.54-5.69,1.93-1.34,4.42-2.01,7.48-2.01,3.44,0,6.07.81,7.89,2.42,1.82,1.61,2.72,3.95,2.72,7v10.69h2.34v4.96h-5.12v-3.81h-1.72c-.85,1.31-2.01,2.35-3.48,3.11-1.48.76-3.2,1.15-5.16,1.15ZM320.11,45.89c1.48,0,2.81-.29,3.99-.88,1.19-.59,2.13-1.38,2.83-2.38s1.04-2.11,1.04-3.34v-1.02h-7.95c-3.33,0-5,1.26-5,3.77,0,1.17.45,2.11,1.35,2.81s2.14,1.04,3.73,1.04Z"/>
    <path d="M343.08,49.29c-1.34,0-2.38-.34-3.13-1.02-.75-.68-1.13-1.72-1.13-3.11v-16.71h-4.55v-3.73h4.59v-7.37h4.75v7.37h6.35v3.73h-6.31v17.04h6.96v3.81h-7.54Z"/>
    <path d="M363.68,49.78c-2.57,0-4.8-.53-6.7-1.58-1.9-1.05-3.37-2.53-4.4-4.44-1.04-1.91-1.56-4.16-1.56-6.76s.51-4.85,1.54-6.76c1.02-1.91,2.5-3.39,4.42-4.44,1.93-1.05,4.17-1.58,6.74-1.58s4.83.52,6.72,1.56c1.88,1.04,3.34,2.51,4.36,4.42,1.02,1.91,1.54,4.18,1.54,6.8s-.52,4.85-1.56,6.78c-1.04,1.93-2.5,3.41-4.38,4.44-1.88,1.04-4.12,1.56-6.72,1.56ZM363.68,45.56c2.49,0,4.41-.76,5.78-2.27,1.36-1.52,2.05-3.63,2.05-6.33s-.68-4.8-2.05-6.29c-1.37-1.49-3.29-2.23-5.78-2.23s-4.38.75-5.76,2.25c-1.38,1.5-2.07,3.59-2.07,6.27s.69,4.81,2.07,6.33c1.38,1.52,3.3,2.27,5.76,2.27Z"/>
    <path d="M379.25,49.29v-19.62h-2.5v-4.96h5.16v4.63h1.72c.68-1.56,1.74-2.75,3.17-3.58,1.43-.83,3.09-1.25,4.98-1.25h2.05v4.14h-2.25c-2.43,0-4.29.71-5.59,2.13-1.3,1.42-1.95,3.33-1.95,5.73v12.78h-4.79Z"/>
    <polygon points="143.14 20.3 143.14 16.11 138.06 16.11 138.06 16.1 133.11 16.1 133.11 16.11 128.04 16.11 128.04 20.3 133.11 20.3 133.11 45.08 128.04 45.08 128.04 49.29 133.11 49.29 133.11 49.29 138.06 49.29 138.06 49.27 143.14 49.27 143.14 45.08 138.06 45.08 138.06 20.3 143.14 20.3"/>
    <polygon points="194.51 45.32 194.51 20.32 199.58 20.32 199.58 16.1 194.51 16.1 194.51 16.1 189.55 16.1 189.55 16.1 184.51 16.1 184.51 20.32 189.55 20.32 189.55 45.32 184.51 45.32 184.51 49.27 189.55 49.27 189.55 49.29 194.51 49.29 194.51 49.27 199.58 49.27 199.58 45.32 194.51 45.32"/>
  </g>
</svg>