<svg width="394" height="69" viewBox="0 0 394 69" fill="none" xmlns="http://www.w3.org/2000/svg">
<g clip-path="url(#clip0_13_384)">
<path d="M43.3 20.34V21.73C49.58 21.96 54.62 27 54.85 33.28C55.74 33.28 55.35 33.28 56.24 33.28C56.47 27 61.51 21.96 67.79 21.73V20.34C61.51 20.11 56.47 15.07 56.24 8.79C55.35 8.79 55.74 8.79 54.85 8.79C54.62 15.07 49.58 20.11 43.3 20.34ZM68.65 44.52C66.64 40.35 62.08 37.56 56.94 37.34H32.12L46.73 0H35.89C30.87 0 26.38 2.83 24.63 7.09L0 68.49H11.41C16.21 68.49 20.63 65.67 22.96 61.12L29.88 43.81L43.64 43.92C50.16 43.92 51.15 48.92 52.66 52.87L56.16 61.12C58.49 65.67 62.91 68.49 67.71 68.49H79.12L68.66 44.52H68.65Z" fill="white" style="fill:white;fill-opacity:1;"/>
<path d="M92.3201 49.29L106.53 16.11H111.94L126.07 49.29H121.07L116.93 39.58H101.32L97.1801 49.29H92.3101H92.3201ZM102.93 35.36H115.47L109.32 20.82H109.12L102.93 35.36Z" fill="white" style="fill:white;fill-opacity:1;"/>
<path d="M146.04 49.29V45.81L159.76 32.46C161.51 30.77 162.7 29.4 163.32 28.36C163.95 27.32 164.26 26.24 164.26 25.12C164.26 23.43 163.7 22.1 162.58 21.15C161.46 20.19 159.9 19.72 157.91 19.72C153.59 19.72 151.19 21.88 150.7 26.19H146.03C146.25 22.86 147.41 20.26 149.51 18.41C151.61 16.55 154.43 15.62 157.95 15.62C160.22 15.62 162.18 16.01 163.83 16.79C165.48 17.57 166.77 18.65 167.68 20.05C168.59 21.44 169.05 23.1 169.05 25.01C169.05 26.57 168.61 28.1 167.74 29.62C166.87 31.14 165.47 32.82 163.56 34.68L152.75 44.96L152.79 45.12H169.67V49.3H146.03L146.04 49.29Z" fill="white" style="fill:white;fill-opacity:1;"/>
<path d="M203.63 49.29V29.67H201.13V24.71H206.29V28.52H208.01C208.86 27.13 210.02 26.07 211.49 25.35C212.97 24.63 214.7 24.26 216.69 24.26C219.89 24.26 222.4 25.17 224.25 27C226.09 28.83 227.02 31.26 227.02 34.29V49.28H222.19V35.11C222.19 32.95 221.61 31.31 220.45 30.19C219.29 29.07 217.59 28.51 215.35 28.51C213.11 28.51 211.4 29.07 210.23 30.19C209.06 31.31 208.47 32.95 208.47 35.11V49.28H203.64L203.63 49.29Z" fill="white" style="fill:white;fill-opacity:1;"/>
<path d="M241.66 49.78C239.15 49.78 236.96 49.25 235.11 48.2C233.25 47.15 231.81 45.67 230.79 43.76C229.77 41.85 229.25 39.6 229.25 37C229.25 34.4 229.75 32.15 230.77 30.24C231.78 28.33 233.21 26.85 235.07 25.8C236.93 24.75 239.13 24.22 241.67 24.22C244.7 24.22 247.22 24.97 249.23 26.47C251.24 27.97 252.57 30.12 253.22 32.9H248.3C247.86 31.4 247.08 30.28 245.97 29.54C244.85 28.8 243.42 28.43 241.67 28.43C239.29 28.43 237.44 29.18 236.1 30.68C234.76 32.18 234.09 34.29 234.09 36.99C234.09 39.69 234.76 41.8 236.1 43.3C237.44 44.8 239.3 45.55 241.67 45.55C245.36 45.55 247.62 43.93 248.47 40.67H253.34C252.74 43.59 251.43 45.84 249.41 47.41C247.39 48.98 244.81 49.77 241.67 49.77L241.66 49.78Z" fill="white" style="fill:white;fill-opacity:1;"/>
<path d="M265.77 49.74C262.6 49.74 260.11 48.86 258.29 47.1C256.47 45.34 255.57 42.96 255.57 39.95V24.71H260.4V38.97C260.4 41.1 260.96 42.72 262.08 43.82C263.2 44.93 264.84 45.48 267 45.48C269.27 45.48 271.02 44.9 272.26 43.74C273.5 42.58 274.12 40.96 274.12 38.89V24.72H278.95V44.34H281.45V49.3H276.33V45.49H274.61C273.71 46.88 272.53 47.94 271.07 48.66C269.61 49.38 267.84 49.75 265.77 49.75V49.74Z" fill="white" style="fill:white;fill-opacity:1;"/>
<path d="M296.8 49.78C294.81 49.78 293.1 49.41 291.68 48.67C290.26 47.93 289.14 46.87 288.32 45.47H286.6V49.28H281.44V44.32H283.94V14.87H288.77V28.59H288.93C289.69 27.17 290.79 26.08 292.21 25.33C293.63 24.58 295.3 24.2 297.21 24.2C299.56 24.2 301.57 24.72 303.25 25.76C304.93 26.8 306.21 28.27 307.1 30.18C307.99 32.09 308.43 34.36 308.43 36.98C308.43 39.6 307.97 41.87 307.06 43.78C306.14 45.69 304.83 47.17 303.11 48.2C301.39 49.24 299.29 49.76 296.8 49.76V49.78ZM296.02 45.64C298.45 45.64 300.32 44.88 301.63 43.35C302.94 41.82 303.6 39.7 303.6 37C303.6 34.3 302.94 32.18 301.63 30.65C300.32 29.12 298.45 28.36 296.02 28.36C293.83 28.36 292.08 28.99 290.76 30.24C289.44 31.5 288.77 33.18 288.77 35.28V38.72C288.77 40.82 289.43 42.5 290.76 43.76C292.09 45.02 293.84 45.64 296.02 45.64Z" fill="white" style="fill:white;fill-opacity:1;"/>
<path d="M319.46 49.74C316.67 49.74 314.48 49.04 312.87 47.65C311.26 46.26 310.45 44.45 310.45 42.24C310.45 39.86 311.25 38.03 312.85 36.73C314.45 35.43 316.75 34.78 319.75 34.78H327.98V33.72C327.98 30.03 325.96 28.19 321.92 28.19C318.56 28.19 316.54 29.43 315.86 31.92H310.98C311.42 29.46 312.6 27.56 314.52 26.23C316.45 24.89 318.94 24.22 322 24.22C325.44 24.22 328.07 25.03 329.89 26.64C331.71 28.25 332.61 30.59 332.61 33.64V44.33H334.95V49.29H329.83V45.48H328.11C327.26 46.79 326.1 47.83 324.63 48.59C323.15 49.35 321.43 49.74 319.47 49.74H319.46ZM320.11 45.89C321.59 45.89 322.92 45.6 324.1 45.01C325.29 44.42 326.23 43.63 326.93 42.63C327.63 41.63 327.97 40.52 327.97 39.29V38.27H320.02C316.69 38.27 315.02 39.53 315.02 42.04C315.02 43.21 315.47 44.15 316.37 44.85C317.27 45.55 318.51 45.89 320.1 45.89H320.11Z" fill="white" style="fill:white;fill-opacity:1;"/>
<path d="M343.08 49.29C341.74 49.29 340.7 48.95 339.95 48.27C339.2 47.59 338.82 46.55 338.82 45.16V28.45H334.27V24.72H338.86V17.35H343.61V24.72H349.96V28.45H343.65V45.49H350.61V49.3H343.07L343.08 49.29Z" fill="white" style="fill:white;fill-opacity:1;"/>
<path d="M363.68 49.78C361.11 49.78 358.88 49.25 356.98 48.2C355.08 47.15 353.61 45.67 352.58 43.76C351.54 41.85 351.02 39.6 351.02 37C351.02 34.4 351.53 32.15 352.56 30.24C353.58 28.33 355.06 26.85 356.98 25.8C358.91 24.75 361.15 24.22 363.72 24.22C366.29 24.22 368.55 24.74 370.44 25.78C372.32 26.82 373.78 28.29 374.8 30.2C375.82 32.11 376.34 34.38 376.34 37C376.34 39.62 375.82 41.85 374.78 43.78C373.74 45.71 372.28 47.19 370.4 48.22C368.52 49.26 366.28 49.78 363.68 49.78ZM363.68 45.56C366.17 45.56 368.09 44.8 369.46 43.29C370.82 41.77 371.51 39.66 371.51 36.96C371.51 34.26 370.83 32.16 369.46 30.67C368.09 29.18 366.17 28.44 363.68 28.44C361.19 28.44 359.3 29.19 357.92 30.69C356.54 32.19 355.85 34.28 355.85 36.96C355.85 39.64 356.54 41.77 357.92 43.29C359.3 44.81 361.22 45.56 363.68 45.56Z" fill="white" style="fill:white;fill-opacity:1;"/>
<path d="M379.25 49.29V29.67H376.75V24.71H381.91V29.34H383.63C384.31 27.78 385.37 26.59 386.8 25.76C388.23 24.93 389.89 24.51 391.78 24.51H393.83V28.65H391.58C389.15 28.65 387.29 29.36 385.99 30.78C384.69 32.2 384.04 34.11 384.04 36.51V49.29H379.25Z" fill="white" style="fill:white;fill-opacity:1;"/>
<path d="M143.14 20.3V16.11H138.06V16.1H133.11V16.11H128.04V20.3H133.11V45.08H128.04V49.29H133.11H138.06V49.27H143.14V45.08H138.06V20.3H143.14Z" fill="white" style="fill:white;fill-opacity:1;"/>
<path d="M194.51 45.32V20.32H199.58V16.1H194.51H189.55H184.51V20.32H189.55V45.32H184.51V49.27H189.55V49.29H194.51V49.27H199.58V45.32H194.51Z" fill="white" style="fill:white;fill-opacity:1;"/>
</g>
<defs>
<clipPath id="clip0_13_384">
<rect width="393.83" height="68.49" fill="white" style="fill:white;fill-opacity:1;"/>
</clipPath>
</defs>
</svg>
